<svg width="20" height="24" viewBox="0 0 20 24" fill="none" xmlns="http://www.w3.org/2000/svg">
<path d="M10.0004 0C10.3186 0 10.6238 0.126428 10.8489 0.351472C11.0739 0.576516 11.2004 0.88174 11.2004 1.2V3.6384L11.1992 3.6636L11.1968 3.6996C12.8751 3.9829 14.3989 4.85145 15.4979 6.1512C16.5969 7.45095 17.2 9.09791 17.2004 10.8C17.2004 14.5116 17.9504 15.9744 19.1192 18.252L19.16 18.3336C19.364 18.7296 19.076 19.2 18.6296 19.2H1.37117C1.26919 19.2001 1.16889 19.174 1.0799 19.1242C0.990908 19.0744 0.916207 19.0025 0.862961 18.9156C0.809715 18.8286 0.779709 18.7294 0.775823 18.6275C0.771937 18.5256 0.7943 18.4244 0.840767 18.3336L0.881567 18.252C2.05037 15.9744 2.80037 14.5116 2.80037 10.8C2.80045 9.0977 3.40347 7.45046 4.50247 6.15046C5.60148 4.85046 7.12542 3.98174 8.80397 3.6984L8.80157 3.6504C8.80074 3.63361 8.80034 3.61681 8.80037 3.6V1.2C8.80037 0.88174 8.9268 0.576516 9.15184 0.351472C9.37688 0.126428 9.68211 0 10.0004 0V0ZM12.4004 21.6C12.4004 22.2365 12.1475 22.847 11.6974 23.2971C11.2473 23.7471 10.6369 24 10.0004 24C9.36385 24 8.7534 23.7471 8.30331 23.2971C7.85322 22.847 7.60037 22.2365 7.60037 21.6H12.4004Z" fill="#B0AAD0"/>
</svg>
